<mxfile host="65bd71144e">
    <diagram id="oKisvwmTbeVCplPqsI_-" name="Page-1">
        <mxGraphModel dx="2466" dy="939" grid="1" gridSize="10" guides="1" tooltips="1" connect="1" arrows="1" fold="1" page="1" pageScale="1" pageWidth="850" pageHeight="1100" math="0" shadow="0">
            <root>
                <mxCell id="0"/>
                <mxCell id="1" parent="0"/>
                <mxCell id="43" value="QueryOptions" style="text;html=1;align=center;verticalAlign=middle;resizable=0;points=[];autosize=1;strokeColor=none;fillColor=none;" vertex="1" parent="1">
                    <mxGeometry x="380" y="20" width="90" height="20" as="geometry"/>
                </mxCell>
                <mxCell id="44" value="" style="rounded=1;whiteSpace=wrap;html=1;arcSize=3;" vertex="1" parent="1">
                    <mxGeometry x="141" y="90" width="569" height="350" as="geometry"/>
                </mxCell>
                <mxCell id="48" value="Applying FilterOptions" style="text;html=1;align=center;verticalAlign=middle;resizable=0;points=[];autosize=1;strokeColor=none;fillColor=none;" vertex="1" parent="1">
                    <mxGeometry x="360" y="1140" width="130" height="20" as="geometry"/>
                </mxCell>
                <mxCell id="62" style="edgeStyle=none;html=1;" edge="1" parent="1" source="51" target="60">
                    <mxGeometry relative="1" as="geometry"/>
                </mxCell>
                <mxCell id="51" value="Check query options" style="rounded=1;whiteSpace=wrap;html=1;arcSize=9;fillColor=#e3c800;fontColor=#000000;strokeColor=#B09500;" vertex="1" parent="1">
                    <mxGeometry x="336" y="640" width="185" height="40" as="geometry"/>
                </mxCell>
                <mxCell id="52" value="General Pattern" style="text;html=1;align=center;verticalAlign=middle;resizable=0;points=[];autosize=1;strokeColor=none;fillColor=none;" vertex="1" parent="1">
                    <mxGeometry x="375" y="580" width="100" height="20" as="geometry"/>
                </mxCell>
                <mxCell id="57" style="edgeStyle=none;html=1;entryX=0.5;entryY=0;entryDx=0;entryDy=0;" edge="1" parent="1" source="54" target="56">
                    <mxGeometry relative="1" as="geometry"/>
                </mxCell>
                <mxCell id="54" value="Create predicates" style="rounded=1;whiteSpace=wrap;html=1;arcSize=9;fillColor=#e3c800;fontColor=#000000;strokeColor=#B09500;" vertex="1" parent="1">
                    <mxGeometry x="338" y="780" width="185" height="40" as="geometry"/>
                </mxCell>
                <mxCell id="59" style="edgeStyle=none;html=1;" edge="1" parent="1" source="56" target="58">
                    <mxGeometry relative="1" as="geometry"/>
                </mxCell>
                <mxCell id="56" value="Join predicates" style="rounded=1;whiteSpace=wrap;html=1;arcSize=9;fillColor=#e3c800;fontColor=#000000;strokeColor=#B09500;" vertex="1" parent="1">
                    <mxGeometry x="338" y="850" width="185" height="40" as="geometry"/>
                </mxCell>
                <mxCell id="58" value="Apply to query source" style="rounded=1;whiteSpace=wrap;html=1;arcSize=9;fillColor=#e3c800;fontColor=#000000;strokeColor=#B09500;" vertex="1" parent="1">
                    <mxGeometry x="338" y="920" width="185" height="40" as="geometry"/>
                </mxCell>
                <mxCell id="61" style="edgeStyle=none;html=1;" edge="1" parent="1" source="60" target="54">
                    <mxGeometry relative="1" as="geometry"/>
                </mxCell>
                <mxCell id="60" value="Check props to avoid exceptions" style="rounded=1;whiteSpace=wrap;html=1;arcSize=9;fillColor=#e3c800;fontColor=#000000;strokeColor=#B09500;" vertex="1" parent="1">
                    <mxGeometry x="336" y="710" width="185" height="40" as="geometry"/>
                </mxCell>
                <mxCell id="83" style="edgeStyle=none;html=1;" edge="1" parent="1" source="73" target="82">
                    <mxGeometry relative="1" as="geometry"/>
                </mxCell>
                <mxCell id="84" style="edgeStyle=none;html=1;" edge="1" parent="1" source="73">
                    <mxGeometry relative="1" as="geometry">
                        <mxPoint x="120" y="1230" as="targetPoint"/>
                    </mxGeometry>
                </mxCell>
                <mxCell id="73" value="Check query options" style="rounded=1;whiteSpace=wrap;html=1;arcSize=9;fillColor=#e3c800;fontColor=#000000;strokeColor=#B09500;" vertex="1" parent="1">
                    <mxGeometry x="-100" y="1210" width="170" height="40" as="geometry"/>
                </mxCell>
                <mxCell id="82" value="Check if FilterOptions is null" style="rounded=1;whiteSpace=wrap;html=1;arcSize=9;" vertex="1" parent="1">
                    <mxGeometry x="-100" y="1300" width="170" height="40" as="geometry"/>
                </mxCell>
                <mxCell id="90" style="edgeStyle=none;html=1;entryX=0.5;entryY=0;entryDx=0;entryDy=0;" edge="1" parent="1" source="88" target="89">
                    <mxGeometry relative="1" as="geometry"/>
                </mxCell>
                <mxCell id="92" style="edgeStyle=none;html=1;" edge="1" parent="1" source="88">
                    <mxGeometry relative="1" as="geometry">
                        <mxPoint x="340" y="1230" as="targetPoint"/>
                    </mxGeometry>
                </mxCell>
                <mxCell id="88" value="Check props" style="rounded=1;whiteSpace=wrap;html=1;arcSize=9;fillColor=#e3c800;fontColor=#000000;strokeColor=#B09500;" vertex="1" parent="1">
                    <mxGeometry x="120" y="1210" width="170" height="40" as="geometry"/>
                </mxCell>
                <mxCell id="89" value="Get simple type properties" style="rounded=1;whiteSpace=wrap;html=1;arcSize=9;" vertex="1" parent="1">
                    <mxGeometry x="120" y="1300" width="170" height="40" as="geometry"/>
                </mxCell>
                <mxCell id="96" style="edgeStyle=none;html=1;entryX=0.5;entryY=0;entryDx=0;entryDy=0;" edge="1" parent="1" source="94" target="95">
                    <mxGeometry relative="1" as="geometry"/>
                </mxCell>
                <mxCell id="103" style="edgeStyle=none;html=1;" edge="1" parent="1" source="94" target="97">
                    <mxGeometry relative="1" as="geometry"/>
                </mxCell>
                <mxCell id="94" value="Create predicates" style="rounded=1;whiteSpace=wrap;html=1;arcSize=9;fillColor=#e3c800;fontColor=#000000;strokeColor=#B09500;" vertex="1" parent="1">
                    <mxGeometry x="340" y="1210" width="170" height="40" as="geometry"/>
                </mxCell>
                <mxCell id="109" style="edgeStyle=none;html=1;entryX=0.5;entryY=0;entryDx=0;entryDy=0;" edge="1" parent="1" source="95" target="107">
                    <mxGeometry relative="1" as="geometry"/>
                </mxCell>
                <mxCell id="95" value="Iterate existing props and match to filters by key" style="rounded=1;whiteSpace=wrap;html=1;arcSize=9;" vertex="1" parent="1">
                    <mxGeometry x="340" y="1300" width="170" height="40" as="geometry"/>
                </mxCell>
                <mxCell id="104" style="edgeStyle=none;html=1;" edge="1" parent="1" source="97" target="102">
                    <mxGeometry relative="1" as="geometry"/>
                </mxCell>
                <mxCell id="105" style="edgeStyle=none;html=1;" edge="1" parent="1" source="97" target="98">
                    <mxGeometry relative="1" as="geometry"/>
                </mxCell>
                <mxCell id="97" value="&lt;span&gt;Join predicates&lt;/span&gt;" style="rounded=1;whiteSpace=wrap;html=1;arcSize=9;fillColor=#e3c800;fontColor=#000000;strokeColor=#B09500;" vertex="1" parent="1">
                    <mxGeometry x="560" y="1210" width="170" height="40" as="geometry"/>
                </mxCell>
                <mxCell id="123" style="edgeStyle=none;html=1;" edge="1" parent="1" source="98" target="113">
                    <mxGeometry relative="1" as="geometry"/>
                </mxCell>
                <mxCell id="98" value="Join multichoice predicates with OR" style="rounded=1;whiteSpace=wrap;html=1;arcSize=9;" vertex="1" parent="1">
                    <mxGeometry x="560" y="1300" width="170" height="40" as="geometry"/>
                </mxCell>
                <mxCell id="100" value="Use Where method to apply predicate expression" style="rounded=1;whiteSpace=wrap;html=1;arcSize=9;" vertex="1" parent="1">
                    <mxGeometry x="780" y="1300" width="170" height="40" as="geometry"/>
                </mxCell>
                <mxCell id="106" style="edgeStyle=none;html=1;" edge="1" parent="1" source="102" target="100">
                    <mxGeometry relative="1" as="geometry"/>
                </mxCell>
                <mxCell id="102" value="Apply to query source" style="rounded=1;whiteSpace=wrap;html=1;arcSize=9;fillColor=#e3c800;fontColor=#000000;strokeColor=#B09500;" vertex="1" parent="1">
                    <mxGeometry x="780" y="1210" width="170" height="40" as="geometry"/>
                </mxCell>
                <mxCell id="111" style="edgeStyle=none;html=1;entryX=0.5;entryY=0;entryDx=0;entryDy=0;" edge="1" parent="1" source="107" target="110">
                    <mxGeometry relative="1" as="geometry"/>
                </mxCell>
                <mxCell id="107" value="Create multi choice predicates for duplicate keys by grouping" style="rounded=1;whiteSpace=wrap;html=1;arcSize=9;" vertex="1" parent="1">
                    <mxGeometry x="340" y="1370" width="170" height="40" as="geometry"/>
                </mxCell>
                <mxCell id="115" style="edgeStyle=none;html=1;" edge="1" parent="1" source="110" target="112">
                    <mxGeometry relative="1" as="geometry"/>
                </mxCell>
                <mxCell id="110" value="Create initial predicate with false" style="rounded=1;whiteSpace=wrap;html=1;arcSize=9;" vertex="1" parent="1">
                    <mxGeometry x="340" y="1440" width="170" height="40" as="geometry"/>
                </mxCell>
                <mxCell id="119" style="edgeStyle=none;html=1;entryX=0.5;entryY=0;entryDx=0;entryDy=0;" edge="1" parent="1" source="112" target="116">
                    <mxGeometry relative="1" as="geometry"/>
                </mxCell>
                <mxCell id="112" value="Get compare method" style="rounded=1;whiteSpace=wrap;html=1;arcSize=9;" vertex="1" parent="1">
                    <mxGeometry x="340" y="1510" width="170" height="40" as="geometry"/>
                </mxCell>
                <mxCell id="124" style="edgeStyle=none;html=1;" edge="1" parent="1" source="113" target="114">
                    <mxGeometry relative="1" as="geometry"/>
                </mxCell>
                <mxCell id="113" value="&lt;span&gt;Create initial predicate with true&lt;/span&gt;" style="rounded=1;whiteSpace=wrap;html=1;arcSize=9;" vertex="1" parent="1">
                    <mxGeometry x="560" y="1370" width="170" height="40" as="geometry"/>
                </mxCell>
                <mxCell id="114" value="&lt;span&gt;Join final predicates with AND to single predicate expression&lt;/span&gt;" style="rounded=1;whiteSpace=wrap;html=1;arcSize=9;" vertex="1" parent="1">
                    <mxGeometry x="560" y="1440" width="170" height="40" as="geometry"/>
                </mxCell>
                <mxCell id="120" style="edgeStyle=none;html=1;" edge="1" parent="1" source="116" target="117">
                    <mxGeometry relative="1" as="geometry"/>
                </mxCell>
                <mxCell id="116" value="Convert filter value to comparable type" style="rounded=1;whiteSpace=wrap;html=1;arcSize=9;" vertex="1" parent="1">
                    <mxGeometry x="340" y="1580" width="170" height="40" as="geometry"/>
                </mxCell>
                <mxCell id="121" style="edgeStyle=none;html=1;" edge="1" parent="1" source="117" target="118">
                    <mxGeometry relative="1" as="geometry"/>
                </mxCell>
                <mxCell id="117" value="Create member and call expressions" style="rounded=1;whiteSpace=wrap;html=1;arcSize=9;" vertex="1" parent="1">
                    <mxGeometry x="340" y="1650" width="170" height="40" as="geometry"/>
                </mxCell>
                <mxCell id="118" value="Create lambda expression as predicate function" style="rounded=1;whiteSpace=wrap;html=1;arcSize=9;" vertex="1" parent="1">
                    <mxGeometry x="340" y="1720" width="170" height="40" as="geometry"/>
                </mxCell>
            </root>
        </mxGraphModel>
    </diagram>
</mxfile>